<?xml version="1.0" standalone="no"?>
<!DOCTYPE svg PUBLIC "-//W3C//DTD SVG 20010904//EN"
 "http://www.w3.org/TR/2001/REC-SVG-20010904/DTD/svg10.dtd">
<svg version="1.0" xmlns="http://www.w3.org/2000/svg"
 width="1920.000000pt" height="1920.000000pt" viewBox="0 0 1920.000000 1920.000000"
 preserveAspectRatio="xMidYMid meet">

<g transform="translate(0.000000,1920.000000) scale(0.100000,-0.100000)"
fill="black" stroke="none">
<path d="M2232 17400 c-109 -29 -187 -74 -272 -160 -87 -86 -131 -163 -160
-276 -20 -77 -20 -140 -20 -7364 0 -7224 0 -7287 20 -7364 29 -113 73 -190
160 -276 86 -87 163 -131 276 -160 77 -20 140 -20 7364 -20 7224 0 7287 0
7364 20 113 29 190 73 276 160 87 86 131 163 160 276 20 77 20 140 20 7364 0
7224 0 7287 -20 7364 -29 113 -73 190 -160 276 -86 87 -163 131 -276 160 -77
20 -139 20 -7368 19 -7146 0 -7292 0 -7364 -19z m14750 -217 c93 -44 151 -100
196 -191 l37 -76 0 -7315 0 -7316 -32 -67 c-44 -93 -100 -151 -191 -196 l-76
-37 -7316 0 -7316 0 -76 37 c-91 45 -147 103 -191 196 l-32 67 0 7315 0 7315
32 67 c17 37 50 87 72 111 44 48 135 101 197 116 23 5 2963 8 7334 8 l7295 -2
67 -32z"/>
<path d="M4870 11260 l0 -1570 645 0 645 0 2 321 3 322 244 -322 243 -321 875
0 c481 0 873 4 871 8 -1 5 -536 711 -1188 1570 l-1185 1561 -577 1 -578 0 0
-1570z"/>
<path d="M8930 11260 l0 -1570 645 0 645 0 0 1570 0 1570 -645 0 -645 0 0
-1570z"/>
<path d="M13050 11260 l0 -1570 645 0 645 0 0 1570 0 1570 -645 0 -645 0 0
-1570z"/>
<path d="M4870 8000 l0 -1490 645 0 645 0 0 1490 0 1490 -645 0 -645 0 0
-1490z"/>
<path d="M6817 9476 c4 -7 512 -678 1128 -1490 l1120 -1475 578 -1 577 0 0
1490 0 1490 -645 0 -645 0 -2 -241 -3 -242 -183 242 -183 241 -875 0 c-743 0
-874 -2 -867 -14z"/>
<path d="M13050 8977 c0 -290 -4 -549 -10 -597 -45 -371 -220 -600 -519 -682
-110 -31 -343 -30 -454 0 -168 46 -316 118 -474 231 l-81 59 -346 -526 -346
-525 123 -83 c398 -265 745 -409 1137 -471 176 -27 512 -24 685 6 404 71 726
238 996 517 245 253 411 560 505 930 65 258 67 282 71 1002 l5 652 -646 0
-646 0 0 -513z"/>
</g>
</svg>
